HIERARCHY
ROOT Hips
{
	OFFSET 0.000000 0.000000 0.000000 
	CHANNELS 6 Xposition Yposition Zposition Zrotation Yrotation Xrotation
	JOINT LeftUpLeg
	{
		OFFSET 1.363060 -1.794630 0.839290 
		CHANNELS 3 Zrotation Yrotation Xrotation
		JOINT LeftLeg
		{
			OFFSET 2.448110 -6.726130 0.000000 
			CHANNELS 3 Zrotation Yrotation Xrotation
			JOINT LeftFoot
			{
				OFFSET 2.562200 -7.039590 0.000000 
				CHANNELS 3 Zrotation Yrotation Xrotation
				JOINT LeftToeBase
				{
					OFFSET 0.157640 -0.433110 2.322550 
					CHANNELS 3 Zrotation Yrotation Xrotation
					End Site
					{
						OFFSET 0.000000 0.000000 0.000000 
					}
				}
			}
		}
	}
	JOINT RightUpLeg
	{
		OFFSET -1.305520 -1.794630 0.839290 
		CHANNELS 3 Zrotation Yrotation Xrotation
		JOINT RightLeg
		{
			OFFSET -2.542530 -6.985550 0.000000 
			CHANNELS 3 Zrotation Yrotation Xrotation
			JOINT RightFoot
			{
				OFFSET -2.568260 -7.056230 0.000000 
				CHANNELS 3 Zrotation Yrotation Xrotation
				JOINT RightToeBase
				{
					OFFSET -0.164730 -0.452590 2.363150 
					CHANNELS 3 Zrotation Yrotation Xrotation
					End Site
					{
						OFFSET 0.000000 0.000000 0.000000 
					}
				}
			}
		}
	}
	JOINT Spine
	{
		OFFSET 0.028270 2.035590 -0.193380 
		CHANNELS 3 Zrotation Yrotation Xrotation
		JOINT Spine1
		{
			OFFSET 0.056720 2.048850 -0.042750 
			CHANNELS 3 Zrotation Yrotation Xrotation
			JOINT Neck1
			{
				OFFSET -0.054170 1.746240 0.172020 
				CHANNELS 3 Zrotation Yrotation Xrotation
				JOINT Head
				{
					OFFSET 0.104070 1.761360 -0.123970 
					CHANNELS 3 Zrotation Yrotation Xrotation
					End Site
					{
						OFFSET 0.000000 0.000000 0.000000 
					}
				}
			}
			JOINT LeftArm
			{
				OFFSET 3.362410 1.200890 -0.311210 
				CHANNELS 3 Zrotation Yrotation Xrotation
				JOINT LeftForeArm
				{
					OFFSET 4.983000 -0.000000 -0.000000 
					CHANNELS 3 Zrotation Yrotation Xrotation
					JOINT LeftHand
					{
						OFFSET 3.483560 -0.000000 -0.000000 
						CHANNELS 3 Zrotation Yrotation Xrotation
						JOINT LeftHandIndex1
						{
							OFFSET 0.715260 -0.000000 -0.000000 
							CHANNELS 3 Zrotation Yrotation Xrotation
							End Site
							{
								OFFSET 0.000000 0.000000 0.000000 
							}
						}
					}
				}
			}
			JOINT RightArm
			{
				OFFSET -3.136600 1.374050 -0.404650 
				CHANNELS 3 Zrotation Yrotation Xrotation
				JOINT RightForeArm
				{
					OFFSET -5.241900 -0.000000 -0.000000 
					CHANNELS 3 Zrotation Yrotation Xrotation
					JOINT RightHand
					{
						OFFSET -3.444170 -0.000000 -0.000000 
						CHANNELS 3 Zrotation Yrotation Xrotation
						JOINT RightHandIndex1
						{
							OFFSET -0.622530 -0.000000 -0.000000 
							CHANNELS 3 Zrotation Yrotation Xrotation
							End Site
							{
								OFFSET 0.000000 0.000000 0.000000 
							}
						}
					}
				}
			}
		}
	}
}
MOTION
Frames: 18
Frame Time: 0.041667
8.854466 17.413468 -1.827591 -157.520319 71.898511 -153.749541 -16.069781 -3.253568 -31.219466 1.708741 13.987965 36.811932 0.674935 0.389239 9.319928 0.063000 1.620000 4.456700 20.369528 -27.010682 7.886599 -20.702993 -18.417437 91.639175 2.461662 -13.214796 3.153143 -0.109500 -2.134000 5.876000 0.168119 6.439210 -2.390178 1.457715 3.618149 1.195378 11.464876 -23.625858 0.134596 12.899500 -8.124200 -0.800900 -90.373417 13.605436 42.790495 112.593103 -57.478661 -78.722291 -1.512055 -0.089734 -5.896210 -7.125000 0.000000 0.000000 77.621285 1.079174 34.507690 -10.717745 25.640451 -3.946237 0.298144 -1.505944 13.054455 7.125000 0.000000 0.000000 
9.493191 17.269972 -1.837534 -161.398441 71.668725 -157.865860 -16.642441 -5.900397 -29.900539 2.619197 14.978735 40.153751 0.547107 0.249239 6.259413 0.034400 -1.198100 -3.293900 18.106826 -27.167163 4.440968 -22.866038 -18.225478 98.431054 2.067513 -11.557321 1.770931 -0.120500 -2.237800 6.163200 0.156463 5.700300 -2.385753 1.608222 3.253505 0.904890 11.742163 -22.978748 0.209585 13.294700 -7.834300 -0.828100 -91.438204 7.989642 43.441494 109.016854 -57.838729 -75.864248 -1.510639 0.076181 -4.813317 -7.125000 0.000000 0.000000 78.536476 0.767934 32.262042 -10.158675 24.944642 -3.759276 0.294745 -1.586716 15.359193 7.125000 0.000000 0.000000 
10.109883 17.112466 -1.822732 -167.776033 71.945781 -164.005596 -18.352654 -8.281347 -28.569058 3.323299 15.707609 42.711119 0.440420 0.332969 2.334325 0.102600 -2.065800 -5.687700 14.571831 -27.458238 1.282960 -24.730899 -17.819122 104.270725 1.420859 -8.850237 2.527873 -0.067300 -1.674300 4.606400 0.102484 5.045516 -2.378201 2.230595 2.912526 0.784377 12.113399 -22.912918 0.126571 13.666800 -7.753300 -0.766700 -92.310055 1.755045 43.480482 105.158974 -58.176358 -72.834579 -1.519561 0.108440 -2.664229 -7.125000 0.000000 0.000000 79.372171 0.574526 30.213109 -9.629818 24.200979 -3.564185 0.306564 -1.661934 17.190860 7.125000 0.000000 0.000000 
10.772787 17.067270 -1.806010 -175.393905 72.499810 -171.482783 -20.669227 -7.837238 -26.988675 3.686503 15.990176 44.074353 0.654790 -0.469951 -0.333796 0.200400 -2.882800 -7.952700 10.882295 -26.450721 -3.057874 -26.352992 -17.369012 109.442345 0.830970 -6.058071 2.676846 -0.036800 -1.238700 3.406000 0.021292 4.608550 -2.351662 3.106428 2.670375 0.799379 12.371969 -22.736782 0.230718 13.924800 -7.668900 -0.540000 -92.639494 -3.840936 43.735356 99.589127 -58.681890 -68.200073 -1.511029 0.201435 -1.349160 -7.125000 0.000000 0.000000 80.011106 0.401957 28.300726 -9.093687 23.403435 -3.355897 0.296745 -1.717424 18.729091 7.125000 0.000000 0.000000 
11.440437 17.065463 -1.797875 178.920039 72.646576 -177.143617 -22.238183 -7.108647 -24.858277 3.809609 15.985828 44.508719 0.900725 -1.219772 -2.463225 0.242700 -3.170000 -8.752400 8.437676 -25.381802 -7.313454 -27.568763 -17.031821 113.365140 0.305638 -3.251284 2.678014 -0.068200 -1.684600 4.634800 -0.024606 4.154966 -2.329922 3.702651 2.409769 0.842569 12.285817 -22.186056 0.480623 13.835300 -7.486600 -0.473500 -92.550940 -9.231013 43.816524 94.239965 -58.936260 -63.904400 -1.500059 0.210480 -0.274096 -7.125000 0.000000 0.000000 80.560807 0.268839 26.391165 -8.509335 22.556602 -3.134411 0.309861 -1.794890 19.972494 7.125000 0.000000 0.000000 
12.106392 17.072807 -1.802620 175.783627 73.052942 179.453987 -22.890136 -5.329283 -22.582230 3.812521 15.804596 44.424822 1.308592 -2.520366 -3.903893 0.303300 -3.540700 -9.787900 7.905726 -23.769634 -11.277082 -28.348178 -16.911347 115.908101 0.020954 -1.489041 2.624331 -0.000400 -0.127000 0.348900 -0.052185 3.883159 -2.309447 3.905571 2.237015 0.791256 11.999614 -21.515753 0.718932 13.563500 -7.271800 -0.544100 -91.921131 -14.091881 43.559338 88.710174 -58.949677 -59.564869 -1.448537 0.183153 0.102009 -7.125000 0.000000 0.000000 81.092699 0.199764 24.272216 -7.875478 21.660066 -2.908487 0.282502 -1.849443 21.547171 7.125000 0.000000 0.000000 
12.754043 17.047046 -1.800587 173.312730 73.476400 176.920139 -23.159550 -3.335368 -20.693051 3.819808 15.610544 44.279252 1.761463 -4.051816 -4.837417 0.328300 -3.682400 -10.184800 8.538930 -21.174942 -16.244467 -29.020128 -16.928497 118.144925 -0.201974 0.136990 3.022340 -0.030100 -1.119700 3.078300 -0.051439 3.483742 -2.328789 4.192074 1.984632 0.657240 11.649739 -20.653591 1.097300 13.295900 -7.001200 -0.452600 -90.793860 -18.291280 42.703703 83.436579 -58.650774 -55.529906 -1.387912 0.152214 -0.130482 -7.125000 0.000000 0.000000 81.397471 0.256112 22.379764 -7.340102 20.849839 -2.722263 0.202030 -1.864755 23.306564 7.125000 0.000000 0.000000 
13.410168 17.023996 -1.805106 171.217164 73.833507 175.075474 -23.180042 -1.464085 -19.014422 3.809883 15.395052 44.034054 2.082361 -5.164685 -5.349593 0.373900 -3.927400 -10.872600 9.987743 -18.202509 -21.324510 -29.376738 -17.150637 119.301765 -0.209461 0.544669 3.080765 0.000000 0.004500 -0.012500 -0.012654 2.848757 -2.370151 4.592061 1.578541 0.655614 11.017949 -19.281105 1.643045 12.820700 -6.544400 -0.478200 -89.021834 -21.868031 40.948734 79.384460 -58.132894 -52.659314 -1.341052 0.021756 -1.127984 -7.125000 0.000000 0.000000 81.424033 0.253906 21.287741 -7.112630 20.448031 -2.635358 0.144235 -1.832386 24.319886 7.125000 0.000000 0.000000 
14.089907 17.030662 -1.818552 169.939695 74.162181 174.036065 -22.786240 0.442352 -17.228212 3.758029 15.113851 43.605553 2.262156 -5.832138 -5.312357 0.554900 -4.771600 -13.258400 11.873000 -15.126185 -25.462370 -29.275628 -17.621015 118.873828 -0.057926 -0.037439 3.067552 -0.105000 2.089200 -5.752100 0.038266 2.142817 -2.421601 4.865587 1.150699 0.572053 10.546632 -18.169244 2.120193 12.591100 -6.178900 -0.491800 -86.408794 -24.586905 38.846336 76.020874 -57.507488 -50.380673 -1.288158 -0.131263 -2.741163 -7.125000 0.000000 0.000000 81.371458 -0.116796 20.936546 -7.262991 20.612375 -2.681582 0.109735 -1.735151 24.046448 7.125000 0.000000 0.000000 
14.783770 17.056085 -1.841150 168.899208 74.380126 173.337512 -22.203850 2.208730 -15.410977 3.637446 14.762019 42.933316 2.408508 -6.532577 -4.635474 0.783600 -5.651300 -15.776100 13.494191 -12.139517 -29.335535 -28.959836 -18.219537 117.634941 0.157416 -0.983693 3.190317 -0.358600 3.847000 -10.646500 0.096508 1.349567 -2.477047 5.052186 0.681815 0.597655 10.119693 -17.120018 2.611912 12.411400 -5.824900 -0.382400 -83.204600 -26.739817 36.294756 73.180999 -56.825997 -48.580168 -1.235807 -0.335842 -4.633055 -7.125000 0.000000 0.000000 81.123606 -0.655020 21.465011 -7.747724 21.285175 -2.852245 0.104344 -1.606194 22.238345 7.125000 0.000000 0.000000 
15.490175 17.096196 -1.872560 167.196945 74.336781 172.239630 -21.805011 3.436374 -13.576881 3.419169 14.352041 41.996357 2.488277 -7.194105 -3.200638 1.079400 -6.603800 -18.546600 14.191456 -9.534537 -33.467888 -28.532657 -18.871078 115.921293 0.328990 -1.660251 3.491230 -0.409600 4.108300 -11.381500 0.168779 0.379564 -2.534937 5.313226 0.103014 0.888198 9.585115 -16.055210 3.055533 12.039600 -5.437000 -0.268000 -79.716195 -28.550262 33.210453 70.389718 -56.072213 -46.834538 -1.174026 -0.571856 -6.638071 -7.125000 0.000000 0.000000 80.603259 -1.267246 22.792116 -8.492274 22.332085 -3.123552 0.149197 -1.483511 19.002743 7.125000 0.000000 0.000000 
16.209009 17.132239 -1.899678 164.560136 74.021088 170.140009 -21.651171 4.247334 -11.532354 3.132331 13.898385 40.892703 2.470906 -7.648171 -1.028719 1.583400 -7.938400 -22.527100 14.047569 -7.514087 -37.186259 -27.910864 -19.533533 113.575451 0.418022 -1.921698 3.274901 -0.460700 4.354000 -12.074800 0.236971 -0.634318 -2.598727 5.715955 -0.485210 1.074397 9.227263 -15.104867 3.401084 11.887200 -5.066200 -0.206400 -76.075105 -29.657302 29.963165 67.834057 -55.310677 -45.261767 -1.111489 -0.811356 -8.866018 -7.125000 0.000000 0.000000 80.008314 -2.266712 24.242804 -9.464286 23.664930 -3.501442 0.218128 -1.354735 14.873689 7.125000 0.000000 0.000000 
16.949762 17.179694 -1.927134 162.378624 73.569480 168.221492 -21.263589 4.995714 -9.186389 2.793116 13.366907 39.602616 2.420823 -8.054380 2.043713 1.915300 -8.687300 -24.822000 13.913340 -5.784720 -39.965414 -26.983569 -20.228674 110.305021 0.592682 -2.694604 3.030938 -0.623600 5.053400 -14.060800 0.299779 -1.508998 -2.637308 6.092792 -0.999999 1.277194 9.014252 -14.441784 3.677204 11.899100 -4.799000 -0.125900 -72.415578 -30.160680 26.802083 65.416222 -54.575057 -43.753536 -1.036846 -1.039724 -10.803251 -7.125000 0.000000 0.000000 79.433788 -3.567207 25.509038 -10.685537 25.304433 -4.015978 0.326115 -1.211099 10.370065 7.125000 0.000000 0.000000 
17.705995 17.240934 -1.962386 160.794420 73.120117 166.705558 -20.594558 5.762000 -6.694121 2.421849 12.764871 38.151558 2.332504 -8.167399 5.847416 2.105700 -9.083000 -26.055200 13.730586 -4.316712 -42.073013 -25.750895 -20.915503 106.189708 0.758808 -3.417068 2.930001 -0.704800 5.365800 -14.954800 0.369707 -2.267129 -2.665455 6.451884 -1.471606 1.537150 8.748720 -13.978845 3.977200 11.770000 -4.641500 0.058200 -68.961143 -30.325588 23.642897 62.769917 -53.762220 -41.982635 -0.931293 -1.242633 -12.417599 -7.125000 0.000000 0.000000 78.731446 -5.118964 26.735557 -12.161684 27.217635 -4.687753 0.475464 -1.072898 6.026263 7.125000 0.000000 0.000000 
18.473301 17.311213 -2.001706 159.795662 72.683168 165.713959 -19.614936 6.459112 -4.129064 1.982429 12.043589 36.352283 2.264750 -8.010048 10.243131 2.395300 -9.644900 -27.834400 13.591659 -3.250865 -43.695261 -24.214515 -21.530808 101.285603 0.909923 -4.050467 3.195168 -0.746500 5.519000 -15.394900 0.454937 -3.020600 -2.692524 6.866477 -1.926103 1.542365 8.583405 -13.279119 4.064876 11.855700 -4.324400 -0.262900 -65.763433 -29.927479 20.544504 60.135224 -52.968053 -40.314032 -0.816910 -1.538120 -14.596982 -7.125000 0.000000 0.000000 77.898076 -6.910643 27.827608 -13.672943 29.125242 -5.436456 0.621086 -0.950465 2.522364 7.125000 0.000000 0.000000 
19.249194 17.377537 -2.040688 159.126059 72.439768 165.007673 -18.374179 7.083220 -1.556780 1.495506 11.203707 34.189038 2.202504 -7.156939 15.611013 2.292000 -9.449600 -27.212000 13.670241 -2.375139 -44.713529 -22.401291 -22.011293 95.726737 1.098873 -4.859960 3.677069 -1.253200 7.097100 -20.003500 0.527359 -3.615126 -2.719009 7.172354 -2.299052 1.586266 8.406721 -12.551357 4.238998 11.896500 -4.017500 -0.481100 -62.697454 -28.995986 17.750205 58.163591 -52.360900 -39.235939 -0.615128 -1.818629 -17.902081 -7.125000 0.000000 0.000000 77.140371 -8.782186 28.555841 -15.102684 30.896101 -6.207992 0.737241 -0.827618 0.086354 7.125000 0.000000 0.000000 
20.045312 17.464764 -2.085657 157.759153 72.482665 163.519792 -17.268891 7.664605 1.260406 1.013901 10.252428 31.607219 2.135058 -5.216464 21.193573 1.716900 -8.249600 -23.474900 13.432920 -1.394150 -45.282612 -20.322660 -22.312879 89.590345 1.129653 -4.936565 4.536571 -1.405600 7.499400 -21.203500 0.563233 -3.981546 -2.744106 7.266784 -2.552508 1.671661 8.097713 -11.955824 4.502565 11.682000 -3.818300 -0.538500 -59.830423 -27.741838 15.219112 57.041823 -52.017262 -39.002003 -0.289269 -2.102645 -22.472863 -7.125000 0.000000 0.000000 76.456390 -10.856715 29.093140 -16.606462 32.710353 -7.083346 0.823395 -0.719501 -1.755742 7.125000 0.000000 0.000000 
20.842785 17.532897 -2.145315 156.196727 72.608834 161.755706 -16.336127 7.985103 4.463378 0.629637 9.295137 28.945726 2.042955 -2.940252 25.010801 1.127400 -6.744300 -18.959900 13.082105 -0.699724 -45.405432 -18.027524 -22.348036 82.999618 1.075567 -4.711608 5.717056 -1.568700 7.903000 -22.419900 0.596297 -4.304723 -2.764292 7.253359 -2.789750 1.859185 7.639208 -11.389586 4.839704 11.238700 -3.665600 -0.503800 -57.374979 -26.367702 11.669919 57.508794 -52.082216 -40.550619 0.099678 -2.329077 -30.466764 -7.125000 0.000000 0.000000 75.575948 -12.902155 29.690549 -18.122452 34.494443 -8.033770 0.875231 -0.638629 -3.123271 7.125000 0.000000 0.000000 
